# xmcd
#
# Track frame offsets:
#	150
#	9360
#	23745
#	34283
#	43688
#	56326
#	65544
#	78474
#	90107
#	103457
#
# Disc length: 1522 seconds
#
# Revision: 1
# Processed by: cddbd v1.5.2PL0 Copyright (c) Steve Scherf et al.
# Submitted via: audiograbber 1.83.01
#
DISCID=7405f00a
DTITLE=Unknown - The Folk Hit Song Book
DYEAR=1964
DGENRE=Instrumental
TTITLE0=Green Green
TTITLE1=Reverend Mr. Black
TTITLE2=Puff (The Magic Dragon)
TTITLE3=Michael
TTITLE4=If I Had A Hammer
TTITLE5=Walk Right In
TTITLE6=Green Fields
TTITLE7=Cotton Fields
TTITLE8=Don't Think Twice
TTITLE9=Blue Water Line
EXTD=
EXTT0=
EXTT1=
EXTT2=
EXTT3=
EXTT4=
EXTT5=
EXTT6=
EXTT7=
EXTT8=
EXTT9=
PLAYORDER=
